# Blender 4.5.1 LTS
# www.blender.org
mtllib materials.mtl
o Left_Pad_Link
v 0.001500 0.022250 -0.003208
v -0.001500 0.022250 -0.003208
v 0.001500 0.022250 0.003208
v -0.001500 0.022250 0.003208
v 0.001500 -0.017250 -0.011500
v 0.001500 0.017250 -0.011500
v 0.001500 0.020673 -0.008883
v 0.001500 0.021540 -0.007098
v 0.001500 0.022071 -0.005185
v 0.001500 0.021540 0.007098
v 0.001500 0.020673 0.008883
v 0.001500 0.017250 0.011500
v 0.001500 -0.017250 0.011500
v 0.001500 0.022071 0.005185
v 0.001500 0.019500 0.010484
v 0.001500 0.018857 0.011033
v 0.001500 0.018087 0.011381
v 0.001500 0.018087 -0.011381
v 0.001500 0.018857 -0.011033
v 0.001500 0.019500 -0.010484
v -0.001500 0.017250 -0.011500
v -0.001500 -0.017250 -0.011500
v -0.001500 -0.017250 0.011500
v -0.001500 0.017250 0.011500
v -0.001500 0.022071 -0.005185
v -0.001500 0.021540 -0.007098
v -0.001500 0.020673 -0.008883
v -0.001500 0.020673 0.008883
v -0.001500 0.021540 0.007098
v -0.001500 0.022071 0.005185
v -0.001500 0.019500 0.010484
v -0.001500 0.018087 0.011381
v -0.001500 0.018857 0.011033
v -0.001500 0.019500 -0.010484
v -0.001500 0.018857 -0.011033
v -0.001500 0.018087 -0.011381
vn -0.0000 1.0000 -0.0000
vn 1.0000 -0.0000 -0.0000
vn -1.0000 -0.0000 -0.0000
vn -0.0000 -0.0000 -1.0000
vn -0.0000 -0.0000 1.0000
vn -0.0000 -1.0000 -0.0000
vn -0.0000 0.1409 -0.9900
vn -0.0000 0.4114 -0.9114
vn -0.0000 0.6493 -0.7605
vn -0.0000 0.8066 -0.5911
vn -0.0000 0.8997 -0.4365
vn -0.0000 0.9635 -0.2677
vn -0.0000 0.9959 -0.0902
vn -0.0000 0.6493 0.7605
vn -0.0000 0.4114 0.9114
vn -0.0000 0.1409 0.9900
vn -0.0000 0.9959 0.0902
vn -0.0000 0.9635 0.2677
vn -0.0000 0.8997 0.4365
vn -0.0000 0.8066 0.5911
s 0
usemtl black_rubber
f 1//1 2//1 3//1
f 3//1 2//1 4//1
f 1//2 5//2 6//2
f 7//2 8//2 6//2
f 6//2 8//2 9//2
f 6//2 9//2 1//2
f 10//2 11//2 12//2
f 5//2 1//2 13//2
f 13//2 1//2 3//2
f 13//2 3//2 12//2
f 12//2 3//2 14//2
f 12//2 14//2 10//2
f 11//2 15//2 12//2
f 12//2 15//2 16//2
f 12//2 16//2 17//2
f 18//2 19//2 6//2
f 6//2 19//2 20//2
f 6//2 20//2 7//2
f 21//3 22//3 2//3
f 2//3 22//3 4//3
f 4//3 22//3 23//3
f 4//3 23//3 24//3
f 2//3 25//3 21//3
f 21//3 25//3 26//3
f 21//3 26//3 27//3
f 28//3 29//3 24//3
f 24//3 29//3 30//3
f 24//3 30//3 4//3
f 28//3 24//3 31//3
f 31//3 24//3 32//3
f 31//3 32//3 33//3
f 27//3 34//3 21//3
f 21//3 34//3 35//3
f 21//3 35//3 36//3
f 6//4 5//4 21//4
f 21//4 5//4 22//4
f 24//5 23//5 12//5
f 12//5 23//5 13//5
f 5//6 13//6 22//6
f 22//6 13//6 23//6
f 6//7 21//7 36//7
f 6//7 36//7 18//7
f 18//8 36//8 35//8
f 18//8 35//8 19//8
f 19//9 35//9 34//9
f 19//9 34//9 20//9
f 20//10 34//10 27//10
f 20//10 27//10 7//10
f 7//11 27//11 26//11
f 7//11 26//11 8//11
f 8//12 26//12 25//12
f 8//12 25//12 9//12
f 9//13 25//13 2//13
f 9//13 2//13 1//13
f 15//14 31//14 33//14
f 15//14 33//14 16//14
f 16//15 33//15 32//15
f 16//15 32//15 17//15
f 17//16 32//16 24//16
f 17//16 24//16 12//16
f 3//17 4//17 30//17
f 3//17 30//17 14//17
f 14//18 30//18 29//18
f 14//18 29//18 10//18
f 10//19 29//19 28//19
f 10//19 28//19 11//19
f 11//20 28//20 31//20
f 11//20 31//20 15//20
