# Blender 5.0.0 Alpha
# www.blender.org
mtllib wheel.mtl
o wheel_motor_link1
v 0.070000 0.024000 0.000000
v 0.070000 -0.024000 -0.000000
v 0.069045 -0.024000 -0.011522
v 0.069045 0.024000 -0.011522
v 0.066207 -0.024000 -0.022729
v 0.066207 0.024000 -0.022729
v 0.061563 -0.024000 -0.033316
v 0.061563 0.024000 -0.033316
v 0.055240 -0.024000 -0.042995
v 0.055240 0.024000 -0.042995
v 0.047410 -0.024000 -0.051501
v 0.047410 0.024000 -0.051501
v 0.038286 -0.024000 -0.058602
v 0.038286 0.024000 -0.058602
v 0.028119 -0.024000 -0.064104
v 0.028119 0.024000 -0.064104
v 0.017184 -0.024000 -0.067858
v 0.017184 0.024000 -0.067858
v 0.005781 -0.024000 -0.069761
v 0.005781 0.024000 -0.069761
v -0.005781 -0.024000 -0.069761
v -0.005781 0.024000 -0.069761
v -0.017184 -0.024000 -0.067858
v -0.017184 0.024000 -0.067858
v -0.028119 -0.024000 -0.064104
v -0.028119 0.024000 -0.064104
v -0.038286 -0.024000 -0.058602
v -0.038286 0.024000 -0.058602
v -0.047410 -0.024000 -0.051501
v -0.047410 0.024000 -0.051501
v -0.055240 -0.024000 -0.042995
v -0.055240 0.024000 -0.042995
v -0.061563 -0.024000 -0.033316
v -0.061563 0.024000 -0.033316
v -0.066207 -0.024000 -0.022729
v -0.066207 0.024000 -0.022729
v -0.069045 -0.024000 -0.011522
v -0.069045 0.024000 -0.011522
v -0.070000 -0.024000 -0.000000
v -0.070000 0.024000 0.000000
v 0.069045 -0.024000 0.011522
v 0.066207 -0.024000 0.022729
v 0.061563 -0.024000 0.033316
v 0.055240 -0.024000 0.042995
v 0.047410 -0.024000 0.051501
v 0.038286 -0.024000 0.058602
v 0.028119 -0.024000 0.064104
v -0.038286 -0.024000 0.058602
v -0.047410 -0.024000 0.051501
v 0.017184 -0.024000 0.067858
v 0.005781 -0.024000 0.069761
v -0.005781 -0.024000 0.069761
v -0.017184 -0.024000 0.067858
v -0.028119 -0.024000 0.064104
v -0.061563 -0.024000 0.033316
v -0.069045 -0.024000 0.011522
v -0.066207 -0.024000 0.022729
v -0.055240 -0.024000 0.042995
v -0.069045 0.024000 0.011522
v -0.066207 0.024000 0.022729
v -0.061563 0.024000 0.033316
v -0.055240 0.024000 0.042995
v -0.047410 0.024000 0.051501
v -0.038286 0.024000 0.058602
v -0.028119 0.024000 0.064104
v -0.017184 0.024000 0.067858
v -0.005781 0.024000 0.069761
v 0.005781 0.024000 0.069761
v 0.017184 0.024000 0.067858
v 0.028119 0.024000 0.064104
v 0.038286 0.024000 0.058602
v 0.047410 0.024000 0.051501
v 0.055240 0.024000 0.042995
v 0.061563 0.024000 0.033316
v 0.066207 0.024000 0.022729
v 0.069045 0.024000 0.011522
vn 0.9966 -0.0000 -0.0826
vn 0.9694 -0.0000 -0.2455
vn 0.9158 -0.0000 -0.4017
vn 0.8372 -0.0000 -0.5469
vn 0.7357 -0.0000 -0.6773
vn 0.6142 -0.0000 -0.7891
vn 0.4759 -0.0000 -0.8795
vn 0.3247 -0.0000 -0.9458
vn 0.1646 -0.0000 -0.9864
vn -0.0000 -0.0000 -1.0000
vn -0.1646 -0.0000 -0.9864
vn -0.3247 -0.0000 -0.9458
vn -0.4759 -0.0000 -0.8795
vn -0.6142 -0.0000 -0.7891
vn -0.7357 -0.0000 -0.6773
vn -0.8372 -0.0000 -0.5469
vn -0.9158 -0.0000 -0.4017
vn -0.9694 -0.0000 -0.2455
vn -0.9966 -0.0000 -0.0826
vn -0.0000 -1.0000 -0.0000
vn -0.9966 -0.0000 0.0826
vn -0.9694 -0.0000 0.2455
vn -0.9158 -0.0000 0.4017
vn -0.8372 -0.0000 0.5469
vn -0.7357 -0.0000 0.6773
vn -0.6142 -0.0000 0.7891
vn -0.4759 -0.0000 0.8795
vn -0.3247 -0.0000 0.9458
vn -0.1646 -0.0000 0.9864
vn -0.0000 -0.0000 1.0000
vn 0.1646 -0.0000 0.9864
vn 0.3247 -0.0000 0.9458
vn 0.4759 -0.0000 0.8795
vn 0.6142 -0.0000 0.7891
vn 0.7357 -0.0000 0.6773
vn 0.8372 -0.0000 0.5469
vn 0.9158 -0.0000 0.4017
vn 0.9694 -0.0000 0.2455
vn 0.9966 -0.0000 0.0826
vn -0.0000 1.0000 -0.0000
s 0
usemtl rubber
f 1//1 2//1 3//1
f 1//1 3//1 4//1
f 4//2 3//2 5//2
f 4//2 5//2 6//2
f 6//3 5//3 7//3
f 6//3 7//3 8//3
f 8//4 7//4 9//4
f 8//4 9//4 10//4
f 10//5 9//5 11//5
f 10//5 11//5 12//5
f 12//6 11//6 13//6
f 12//6 13//6 14//6
f 14//7 13//7 15//7
f 14//7 15//7 16//7
f 16//8 15//8 17//8
f 16//8 17//8 18//8
f 18//9 17//9 19//9
f 18//9 19//9 20//9
f 20//10 19//10 21//10
f 20//10 21//10 22//10
f 22//11 21//11 23//11
f 22//11 23//11 24//11
f 24//12 23//12 25//12
f 24//12 25//12 26//12
f 26//13 25//13 27//13
f 26//13 27//13 28//13
f 28//14 27//14 29//14
f 28//14 29//14 30//14
f 30//15 29//15 31//15
f 30//15 31//15 32//15
f 32//16 31//16 33//16
f 32//16 33//16 34//16
f 34//17 33//17 35//17
f 34//17 35//17 36//17
f 36//18 35//18 37//18
f 36//18 37//18 38//18
f 38//19 37//19 39//19
f 38//19 39//19 40//19
f 31//20 29//20 15//20
f 41//20 42//20 35//20
f 35//20 42//20 43//20
f 35//20 43//20 44//20
f 44//20 45//20 35//20
f 35//20 45//20 46//20
f 35//20 46//20 47//20
f 31//20 15//20 33//20
f 48//20 49//20 35//20
f 5//20 3//20 35//20
f 35//20 3//20 2//20
f 35//20 2//20 41//20
f 47//20 50//20 35//20
f 35//20 50//20 51//20
f 35//20 51//20 52//20
f 29//20 27//20 15//20
f 15//20 27//20 25//20
f 15//20 25//20 23//20
f 23//20 21//20 15//20
f 15//20 21//20 19//20
f 15//20 19//20 17//20
f 33//20 15//20 35//20
f 35//20 15//20 13//20
f 35//20 13//20 11//20
f 11//20 9//20 35//20
f 35//20 9//20 7//20
f 35//20 7//20 5//20
f 52//20 53//20 35//20
f 35//20 53//20 54//20
f 35//20 54//20 48//20
f 39//20 55//20 56//20
f 56//20 55//20 57//20
f 49//20 58//20 35//20
f 35//20 58//20 55//20
f 35//20 55//20 37//20
f 37//20 55//20 39//20
f 40//21 39//21 56//21
f 40//21 56//21 59//21
f 59//22 56//22 57//22
f 59//22 57//22 60//22
f 60//23 57//23 55//23
f 60//23 55//23 61//23
f 61//24 55//24 58//24
f 61//24 58//24 62//24
f 62//25 58//25 49//25
f 62//25 49//25 63//25
f 63//26 49//26 48//26
f 63//26 48//26 64//26
f 64//27 48//27 54//27
f 64//27 54//27 65//27
f 65//28 54//28 53//28
f 65//28 53//28 66//28
f 66//29 53//29 52//29
f 66//29 52//29 67//29
f 67//30 52//30 51//30
f 67//30 51//30 68//30
f 68//31 51//31 50//31
f 68//31 50//31 69//31
f 69//32 50//32 47//32
f 69//32 47//32 70//32
f 70//33 47//33 46//33
f 70//33 46//33 71//33
f 71//34 46//34 45//34
f 71//34 45//34 72//34
f 72//35 45//35 44//35
f 72//35 44//35 73//35
f 73//36 44//36 43//36
f 73//36 43//36 74//36
f 74//37 43//37 42//37
f 74//37 42//37 75//37
f 75//38 42//38 41//38
f 75//38 41//38 76//38
f 76//39 41//39 2//39
f 76//39 2//39 1//39
f 73//40 74//40 38//40
f 12//40 14//40 16//40
f 1//40 24//40 26//40
f 59//40 60//40 72//40
f 72//40 60//40 61//40
f 72//40 61//40 62//40
f 62//40 63//40 72//40
f 72//40 63//40 64//40
f 72//40 64//40 65//40
f 70//40 67//40 69//40
f 69//40 67//40 68//40
f 18//40 20//40 6//40
f 26//40 28//40 1//40
f 1//40 28//40 30//40
f 1//40 30//40 32//40
f 74//40 75//40 38//40
f 38//40 75//40 76//40
f 38//40 76//40 36//40
f 36//40 76//40 1//40
f 36//40 1//40 34//40
f 34//40 1//40 32//40
f 73//40 38//40 72//40
f 72//40 38//40 40//40
f 72//40 40//40 59//40
f 70//40 71//40 67//40
f 67//40 71//40 72//40
f 67//40 72//40 66//40
f 66//40 72//40 65//40
f 12//40 16//40 10//40
f 1//40 4//40 24//40
f 24//40 4//40 6//40
f 24//40 6//40 22//40
f 22//40 6//40 20//40
f 18//40 6//40 16//40
f 16//40 6//40 8//40
f 16//40 8//40 10//40
